<svg xmlns="http://www.w3.org/2000/svg" viewBox="0 0 38 38">
  <g>
    <circle cx="19" cy="19" r="5.81" style="fill: none;stroke: #2c3149;stroke-linecap: round;stroke-linejoin: round;stroke-width: 2px"/>
    <path d="M68.08,53.4813v-6.78H62.6309a12.9156,12.9156,0,0,0-1.2769-3.0891L65.2054,39.76l-4.7943-4.7943L56.56,38.8175a13.048,13.048,0,0,0-3.0892-1.2864v-5.44H46.69v5.44a13.048,13.048,0,0,0-3.0892,1.2864L39.75,34.9661,34.9552,39.76l3.8515,3.8515A12.9159,12.9159,0,0,0,37.53,46.701H32.08v6.78H37.53a12.9149,12.9149,0,0,0,1.277,3.0892L34.9552,60.422,39.75,65.2163l3.8514-3.8514A13.0563,13.0563,0,0,0,46.69,62.6513v5.44h6.78v-5.44A13.0563,13.0563,0,0,0,56.56,61.3649l3.8514,3.8514,4.7943-4.7943L61.354,56.5705a12.9146,12.9146,0,0,0,1.2769-3.0892Z" transform="translate(-31.0804 -31.0912)" style="fill: none;stroke: #2c3149;stroke-linecap: round;stroke-linejoin: round;stroke-width: 2px"/>
  </g>
</svg>
